<?xml version="1.0" encoding="utf-8"?>
<!-- Generator: Adobe Illustrator 24.0.2, SVG Export Plug-In . SVG Version: 6.00 Build 0)  -->
<svg version="1.0" id="Layer_2" xmlns="http://www.w3.org/2000/svg" xmlns:xlink="http://www.w3.org/1999/xlink" x="0px" y="0px"
	 viewBox="0 0 36 36" style="enable-background:new 0 0 36 36;" xml:space="preserve">
<style type="text/css">
	.st0{fill:#8942A2;}
</style>
<g>
	<path class="st0" d="M35.4,18c0,9.6-7.8,17.4-17.4,17.4S0.6,27.6,0.6,18S8.4,0.6,18,0.6S35.4,8.4,35.4,18z M28.1,10.8
		c0-1.6-1.3-2.9-2.9-2.9H10.8c-1.6,0-2.9,1.3-2.9,2.9v14.5c0,1.6,1.3,2.9,2.9,2.9h14.5c1.6,0,2.9-1.3,2.9-2.9V10.8z M23.6,16.6H26
		v8.7c0,0.4-0.3,0.7-0.7,0.7H10.8c-0.4,0-0.7-0.3-0.7-0.7v-8.7h2.3c-0.1,0.5-0.2,1-0.2,1.4c0,3.2,2.6,5.8,5.8,5.8
		c3.2,0,5.8-2.6,5.8-5.8C23.8,17.5,23.7,17,23.6,16.6z M14.4,18c0-2,1.6-3.6,3.6-3.6c2,0,3.6,1.6,3.6,3.6S20,21.6,18,21.6
		C16,21.6,14.4,20,14.4,18z M26,10.8v2.2c0,0.4-0.3,0.7-0.7,0.7h-2.2c-0.4,0-0.7-0.3-0.7-0.7v-2.2c0-0.4,0.3-0.7,0.7-0.7h2.2
		C25.6,10,26,10.4,26,10.8z"/>
</g>
</svg>
