<?xml version="1.0" encoding="utf-8"?>
<!-- Generator: Adobe Illustrator 21.0.2, SVG Export Plug-In . SVG Version: 6.00 Build 0)  -->
<svg version="1.1" id="Layer_1" xmlns="http://www.w3.org/2000/svg" xmlns:xlink="http://www.w3.org/1999/xlink" x="0px" y="0px"
	 viewBox="0 0 36 36" style="enable-background:new 0 0 36 36;" xml:space="preserve">
<style type="text/css">
	.st0{fill:#28AAE1;}
	.st1{fill:#3B5999;}
</style>
<g>
	<path class="st0" d="M35.5,18c0,9.7-7.8,17.5-17.5,17.5S0.5,27.7,0.5,18S8.3,0.6,18,0.6S35.5,8.4,35.5,18z M31.1,11.6
		c-0.9,0.4-1.9,0.6-2.9,0.8c1-0.6,1.8-1.6,2.1-2.8c-1,0.6-2,1-3.1,1.2c-0.9-1-2.2-1.6-3.6-1.6c-2.7,0-4.9,2.2-4.9,5
		c0,0.4,0,0.8,0.1,1.1c-4.1-0.2-7.8-2.2-10.3-5.2c-0.4,0.8-0.6,1.6-0.6,2.5c0,1.7,0.9,3.2,2.2,4.1c-0.8,0-1.6-0.2-2.2-0.6v0.1
		c0,2.4,1.7,4.4,4,4.9c-0.4,0.1-0.9,0.2-1.3,0.2c-0.3,0-0.6,0-0.9-0.1c0.6,2,2.5,3.3,4.6,3.4c-1.7,1.3-3.8,2.3-6.2,2.3
		c-0.4,0-0.8-0.1-1.2-0.1c2.2,1.4,4.8,2.2,7.6,2.2c9.1,0,14.1-7.6,14.1-14.1c0-0.2,0-0.4,0-0.6C29.6,13.5,30.4,12.6,31.1,11.6z"/>
</g>
</svg>
