<?xml version="1.0" encoding="utf-8"?>
<!-- Generator: Adobe Illustrator 21.0.2, SVG Export Plug-In . SVG Version: 6.00 Build 0)  -->
<svg version="1.1" id="Layer_1" xmlns="http://www.w3.org/2000/svg" xmlns:xlink="http://www.w3.org/1999/xlink" x="0px" y="0px"
	 viewBox="0 0 36 36" style="enable-background:new 0 0 36 36;" xml:space="preserve">
<style type="text/css">
	.st0{fill:#3DC14F;}
	.st1{fill:#FFFFFF;}
</style>
<path class="st0" d="M35.2,18c0-4.6-1.8-8.9-5-12.2c-3.3-3.3-7.6-5-12.2-5C8.5,0.8,0.8,8.5,0.8,18c0,3.3,0.9,6.4,2.6,9.2l0.4,0.7
	l-1.7,6.4l6.5-1.7l0.6,0.4c2.6,1.6,5.7,2.4,8.8,2.4h0C27.5,35.2,35.2,27.5,35.2,18z"/>
<path class="st1" d="M12.8,9.3c-0.4-0.9-0.8-0.9-1.2-0.9c-0.3,0-0.6,0-1,0c-0.3,0-0.9,0.1-1.4,0.6c-0.5,0.5-1.8,1.8-1.8,4.3
	c0,2.5,1.9,5,2.1,5.4c0.3,0.3,3.6,5.7,8.8,7.8c4.4,1.7,5.3,1.4,6.2,1.3c0.9-0.1,3.1-1.3,3.5-2.5c0.4-1.2,0.4-2.2,0.3-2.5
	c-0.1-0.2-0.5-0.3-1-0.6c-0.5-0.3-3.1-1.5-3.5-1.7c-0.5-0.2-0.8-0.3-1.2,0.3c-0.3,0.5-1.3,1.7-1.6,2c-0.3,0.3-0.6,0.4-1.1,0.1
	c-0.5-0.3-2.2-0.8-4.2-2.6c-1.5-1.4-2.6-3.1-2.9-3.6c-0.3-0.5,0-0.8,0.2-1.1c0.2-0.2,0.5-0.6,0.8-0.9c0.3-0.3,0.3-0.5,0.5-0.9
	c0.2-0.3,0.1-0.6,0-0.9C14.3,12.9,13.3,10.4,12.8,9.3"/>
</svg>
